<?xml version="1.0" encoding="UTF-8"?><svg id="Layer_2" xmlns="http://www.w3.org/2000/svg" viewBox="0 0 678.42 322.13"><defs><style>.cls-1{fill:#f15f22;}.cls-2{fill:#333;}</style></defs><g id="Layer_1-2"><g id="Layer_1-3"><path class="cls-2" d="m166.11,166.85v83.31h-9.01v-94.2l13.95-.06,32.46,81.61,32.4-81.52,13.66-.06v94.2h-9.01v-83.31l-33.25,83.31h-8.22l-33-83.31.03.03Zm104.37,42.92h53.77c-1.84-7.54-4.96-13.44-9.33-17.6s-10.32-6.24-17.83-6.24c-5.22,0-9.64,1.02-13.32,3.03-3.66,2.04-6.58,4.85-8.73,8.45-2.15,3.6-3.69,7.74-4.56,12.39v-.03Zm63.84,7.82h-64.12c.54,3.29.82,5.05.85,5.33.06.26.4,1.53,1.05,3.74.65,2.24,1.96,4.51,3.91,6.86,1.96,2.35,4.28,4.34,7.03,5.92,2.55,1.67,5.05,2.75,7.48,3.2,2.44.45,4.65.65,6.69.65,4.68,0,9.18-1.11,13.52-3.34,4.42-2.58,8.05-6.69,10.86-12.3h10.35c-2.21,5.05-4.9,9.35-8.08,12.98-3.17,3.63-6.97,6.43-11.4,8.42s-9.27,2.98-14.57,2.98c-6.8,0-13.07-1.67-18.82-5.05-5.73-3.34-10.26-7.94-13.58-13.78-3.32-5.84-4.96-12.1-4.96-18.82,0-7.14,1.67-13.58,5.05-19.28,3.34-5.7,7.88-10.12,13.58-13.24,5.7-3.15,11.99-4.71,18.88-4.71h2.92c.79,0,2.95.28,6.49.85s7.46,2.44,11.79,5.64c4.34,3.17,7.74,7.14,10.2,11.93,1.59,2.75,2.81,5.92,3.66,9.52.85,3.63,1.25,7.77,1.25,12.44l-.03.03Zm70.61-27.16v-34.47h8.73v94.2h-8.73v-10.6c-3.54,4.2-7.63,7.31-12.25,9.35-4.65,2.04-9.44,3.09-14.37,3.09-6.26,0-12.22-1.56-17.89-4.65-5.64-3.06-10.32-7.43-13.97-13.1-3.66-5.64-5.5-11.93-5.5-18.91,0-3.88.43-7.43,1.25-10.71.85-3.26,2.64-7.11,5.36-11.51,2.75-4.42,6.83-8.16,12.33-11.23,5.47-3.09,11.54-4.65,18.14-4.65,3.46,0,6.77.51,10.01,1.53,3.23,1.02,6.24,2.44,9.01,4.31,2.78,1.84,5.41,4.28,7.88,7.29v.06Zm0,24.72c0-4.59-1.02-8.96-3.03-13.15-2.04-4.17-4.93-7.71-8.67-10.57-3.74-2.83-7.97-4.65-12.64-5.33h-3.17c-5.05,0-9.58,1.36-13.63,4.03-4.05,2.69-7.26,6.24-9.61,10.69-2.35,4.45-3.51,9.16-3.51,14.17,0,3.51.68,7,2.04,10.43,1.36,3.43,3.37,6.55,6.04,9.35,2.38,2.72,5.3,4.85,8.73,6.32,3.46,1.5,6.97,2.24,10.6,2.24,4.85,0,9.33-1.36,13.44-4.05,4.11-2.66,7.37-6.21,9.81-10.54,2.44-4.37,3.66-8.9,3.66-13.55l-.03-.03Zm32.6-36.09v71.12h-9.01v-71.12h9.01Zm-9.01-23.05h9.01v14.71h-9.01v-14.71Zm32.6,58.22c0,3.54.71,7.09,2.13,10.71,1.42,3.63,3.37,6.8,5.9,9.58,2.52,2.78,5.41,4.93,8.67,6.46,3.26,1.56,6.66,2.32,10.2,2.32,4.93,0,9.01-.96,12.19-2.92s5.58-3.77,7.23-5.5c1.64-1.73,3.03-3.74,4.17-6.04,2.38-4.25,3.57-8.84,3.57-13.78,0-3.34-.57-6.89-1.73-10.6-1.33-3.46-3.12-6.49-5.36-9.13-2.24-2.64-4.45-4.56-6.55-5.75-2.13-1.19-4.05-2.04-5.84-2.58-1.76-.54-3.54-.88-5.3-1.05h-2.52c-3.46,0-6.75.74-9.86,2.18-3.15,1.45-6.04,3.54-8.67,6.35-2.64,2.78-4.68,5.9-6.09,9.38-1.42,3.49-2.13,6.94-2.13,10.37v-.03Zm0,58.88h-9.01v-94.05h8.73v11.65c2.64-4.25,6.26-7.51,10.86-9.81,4.59-2.3,9.72-3.46,15.36-3.46,6.26,0,12.3,1.45,18.09,4.31,5.78,2.83,10.52,7.14,14.17,12.9,3.66,5.73,5.5,12.47,5.5,20.21,0,5.39-1.05,10.46-3.17,15.28-2.13,4.79-4.9,8.73-8.33,11.82-3.46,3.09-7.43,5.53-11.93,7.34-4.51,1.81-9.01,2.72-13.52,2.72-5.05,0-8.96-.68-11.79-2.04s-4.79-2.35-5.9-3.03c-1.11-.65-2.47-1.64-4.11-3-1.64-1.36-3.29-3.09-4.96-5.19v34.3l.03.06Zm84.1-117.1v94.2h-9.01v-94.2h9.01Zm14.57,64.12v-41.07h9.01v40.31c0,1.76.09,3.51.26,5.24.17,1.73.45,3.66.85,5.81s2.01,4.85,4.85,8.05c2.83,3.23,7.54,4.85,14.17,4.85l5.3-.54c3-.54,5.78-1.81,8.33-3.86,2.55-2.01,4.34-4.14,5.36-6.41,1.02-2.24,1.76-4.79,2.18-7.6l.4-7.94v-37.93h9.01v71.12h-9.01v-7.82c-5.84,6.43-12.81,9.67-20.92,9.67-2.38,0-6.24-.6-11.59-1.79-5.33-1.19-9.27-3.83-11.79-7.88-2.52-4.05-4.22-7.82-5.1-11.25-.88-3.46-1.33-7.11-1.33-11l.03.03Zm69.82,7.54h9.41c0,3.54.68,6.6,2.04,9.07,1.36,2.49,3.23,4.34,5.64,5.5,2.21.88,4.11,1.33,5.7,1.33,2.21,0,4.34-.54,6.35-1.64,2.04-1.11,3.54-2.55,4.56-4.39,1.02-1.81,1.53-3.74,1.53-5.75,0-2.75-.91-5.33-2.72-7.71-1.81-2.38-4.25-4.14-7.34-5.3l-9.01-3.46c-2.92-1.05-5.36-2.44-7.34-4.17-1.98-1.73-3.46-3.88-4.37-6.52-.94-2.61-1.39-4.96-1.39-7.09,0-1.42.11-2.66.34-3.8.23-1.11.79-2.69,1.73-4.76s2.89-4.54,5.9-7.43c3-2.86,7.37-4.31,13.12-4.31,2.92,0,6.01.71,9.27,2.13,3.54,1.33,6.12,3.51,7.74,6.55,1.64,3.03,2.64,6.75,2.98,11.06h-9.92c-.71-5.47-3-8.87-6.89-10.2l-3.86-.4c-2.92,0-5.44.94-7.54,2.78-2.13,1.84-3.17,4.54-3.17,7.97,0,1.59.28,3.06.85,4.45.57,1.39,1.67,2.66,3.32,3.86,1.64,1.19,3.6,2.18,5.9,2.98l6.49,2.13c1.5.45,2.44.74,2.83.94.4.17,1.76.85,4.05,1.98,2.3,1.16,4.39,3.34,6.29,6.58s2.83,6.8,2.83,10.69c0,3.54-.88,7-2.64,10.35-1.76,3.34-4.45,6.04-8.02,8.05-3.57,1.98-7.57,2.98-11.99,2.98s-7.97-.82-10.94-2.47c-2.95-1.64-5.05-3.32-6.29-5.05s-2.13-3.15-2.64-4.25c-.54-1.11-1.05-2.55-1.53-4.25-.48-1.73-.82-3.23-.99-4.54-.17-1.28-.26-2.55-.26-3.8l-.03-.06Z"/><path class="cls-2" d="m160.89,289.42l2.07-5.02-5.92-15.28h2.27l4.76,12.44,4.93-12.44h2.3l-8.28,20.3h-2.13Zm10.52-12.61c0-1.13.2-2.15.6-3.09.4-.94.99-1.81,1.79-2.64.79-.82,1.67-1.42,2.64-1.81.99-.4,1.98-.62,2.98-.62h.6c1.42.14,2.52.51,3.34,1.08s1.45,1.11,1.9,1.62c.43.48.88,1.19,1.33,2.04.45.88.68,1.96.68,3.29,0,1.22-.23,2.35-.71,3.43-.45,1.05-1.16,1.98-2.04,2.78-.65.62-1.42,1.13-2.3,1.5s-1.84.54-2.89.54h-.37c-1.02,0-1.87-.17-2.55-.51s-1.22-.68-1.67-.99c-.43-.31-.79-.65-1.11-1.05-.68-.74-1.25-1.62-1.64-2.64s-.62-1.98-.62-2.92h.06Zm2.1-.06c0,.62.09,1.25.23,1.81.14.6.43,1.22.85,1.93.4.71,1.08,1.3,2.01,1.79.94.48,1.87.71,2.81.71.99,0,1.93-.23,2.83-.71.91-.48,1.62-1.19,2.18-2.13s.82-2.1.82-3.43c0-.96-.17-1.87-.51-2.66-.34-.79-.77-1.45-1.28-1.96-.54-.51-1.16-.91-1.9-1.22-.45-.14-.85-.26-1.19-.31s-.65-.09-.99-.09c-.74,0-1.45.14-2.13.4s-1.3.65-1.9,1.19-1.05,1.19-1.36,1.98c-.31.79-.48,1.67-.48,2.64v.06Zm16.02,1.25v-8.87h1.96v8.7c0,.37.03.77.06,1.13s.11.79.2,1.25.43,1.05,1.05,1.73c.62.71,1.64,1.05,3.06,1.05l1.13-.11c.65-.11,1.25-.4,1.81-.82.57-.43.94-.91,1.16-1.39s.37-1.02.48-1.64l.09-1.73v-8.19h1.96v15.36h-1.96v-1.7c-1.25,1.39-2.78,2.1-4.51,2.1-.51,0-1.36-.14-2.49-.4-1.16-.26-2.01-.82-2.55-1.7s-.91-1.7-1.11-2.44-.28-1.53-.28-2.38l-.06.06Zm17.97-2.81v9.27h-1.96v-15.36h1.84v1.79c.48-.68,1.05-1.19,1.64-1.53s1.25-.51,1.96-.51v2.13c-.94,0-1.79.34-2.58,1.05-.37.43-.6.88-.71,1.39-.11.48-.17,1.11-.17,1.79h-.03Zm25.68.45v8.84h-1.96v-8.67c0-1.59-.34-2.83-1.02-3.74s-1.79-1.39-3.37-1.39c-.82,0-1.59.17-2.3.51s-1.22.82-1.56,1.39c-.34.6-.54,1.13-.62,1.62-.06.48-.11.85-.14,1.08s-.03.6-.03,1.13v8.08h-1.9v-20.32h1.9v6.75c.91-.96,1.73-1.53,2.41-1.7.71-.17,1.22-.28,1.56-.34s.71-.09,1.05-.09c1.19,0,2.47.43,3.86,1.25,1.39.85,2.07,2.69,2.07,5.61h.06Zm4.42.11h11.62c-.4-1.64-1.08-2.89-2.01-3.8s-2.24-1.36-3.86-1.36c-1.13,0-2.07.23-2.86.65s-1.42,1.05-1.9,1.81c-.45.77-.79,1.67-.99,2.66v.03Zm13.78,1.7h-13.83c.11.71.17,1.11.2,1.16,0,.06.09.34.23.79.14.48.43.96.85,1.47s.94.94,1.5,1.28c.54.37,1.08.6,1.62.68s.99.14,1.45.14c1.02,0,1.98-.23,2.92-.71.96-.57,1.73-1.45,2.35-2.66h2.24c-.48,1.08-1.05,2.01-1.76,2.81-.68.79-1.5,1.39-2.47,1.81s-2.01.65-3.15.65c-1.47,0-2.83-.37-4.05-1.08-1.25-.74-2.21-1.73-2.92-2.98s-1.08-2.61-1.08-4.05c0-1.53.37-2.92,1.08-4.17.74-1.22,1.7-2.18,2.92-2.86s2.58-1.02,4.08-1.02h.62c.17,0,.65.06,1.39.2.77.11,1.62.54,2.55,1.22s1.67,1.53,2.21,2.58c.34.6.6,1.28.79,2.07.17.79.28,1.67.28,2.69l-.03-.03Zm17.12,7.03h-1.96l.06-2.47c-.68.96-1.5,1.67-2.49,2.15s-2.1.71-3.29.71c-.96,0-1.84-.14-2.58-.4s-1.3-.51-1.73-.77c-.4-.26-.88-.62-1.47-1.13-.6-.51-1.11-1.28-1.56-2.3-.45-1.02-.71-2.15-.71-3.4,0-1.16.23-2.27.71-3.34.48-1.05,1.11-1.93,1.87-2.64s1.62-1.25,2.55-1.59c.94-.37,1.93-.54,2.98-.54.77,0,1.47.11,2.15.31s1.33.51,1.93.94c.62.43,1.16.94,1.64,1.56v-2.47h1.9v15.36Zm-1.9-7.74c0-1.05-.28-2.04-.82-3-.57-.96-1.28-1.73-2.15-2.27s-1.84-.82-2.86-.82h-.54c-.79.09-1.5.31-2.18.68-.62.31-1.19.79-1.7,1.39-.51.62-.88,1.28-1.11,1.96-.23.71-.37,1.45-.37,2.24v.51c0,.48.09.94.23,1.39s.43.99.85,1.64,1.08,1.25,1.96,1.76,1.84.77,2.86.77c1.08,0,2.04-.28,2.95-.88s1.62-1.36,2.13-2.35c.51-.96.77-1.98.77-3.03v.03Zm7.03-12.59v20.32h-1.96v-20.32h1.96Zm6.55,6.92v13.41h-2.01v-13.41h-2.92v-1.96h2.92v-4.99h2.01v4.99h2.89v1.96h-2.89Zm17.29,4.56v8.84h-1.96v-8.67c0-1.59-.34-2.83-1.02-3.74s-1.79-1.39-3.37-1.39c-.82,0-1.59.17-2.3.51s-1.22.82-1.56,1.39c-.34.6-.54,1.13-.62,1.62-.06.48-.11.85-.14,1.08s-.03.6-.03,1.13v8.08h-1.9v-20.32h1.9v6.75c.91-.96,1.73-1.53,2.41-1.7.71-.17,1.22-.28,1.56-.34s.71-.09,1.05-.09c1.19,0,2.47.43,3.86,1.25,1.39.85,2.07,2.69,2.07,5.61h.06Zm4.56,5.1h2.04v3.74h-2.04v-3.74Zm8.02,0h2.04v3.74h-2.04v-3.74Zm8.02,0h2.04v3.74h-2.04v-3.74Zm5.75-3.94c0-1.13.2-2.15.6-3.09.4-.94.99-1.81,1.79-2.64.79-.82,1.67-1.42,2.64-1.81.99-.4,1.98-.62,2.98-.62h.6c1.42.14,2.52.51,3.34,1.08s1.45,1.11,1.9,1.62c.43.48.88,1.19,1.33,2.04.45.88.68,1.96.68,3.29,0,1.22-.23,2.35-.71,3.43-.45,1.05-1.16,1.98-2.04,2.78-.65.62-1.42,1.13-2.3,1.5s-1.84.54-2.89.54h-.37c-1.02,0-1.87-.17-2.55-.51s-1.22-.68-1.64-.99-.79-.65-1.11-1.05c-.68-.74-1.25-1.62-1.64-2.64-.4-1.02-.62-1.98-.62-2.92h.03Zm2.1-.06c0,.62.09,1.25.23,1.81.14.6.43,1.22.85,1.93.4.71,1.08,1.3,2.01,1.79s1.87.71,2.81.71c.99,0,1.93-.23,2.83-.71.91-.48,1.62-1.19,2.18-2.13s.82-2.1.82-3.43c0-.96-.17-1.87-.51-2.66s-.77-1.45-1.28-1.96c-.54-.51-1.16-.91-1.9-1.22-.45-.14-.85-.26-1.19-.31s-.65-.09-.99-.09c-.74,0-1.45.14-2.13.4s-1.3.65-1.9,1.19-1.05,1.19-1.36,1.98-.48,1.67-.48,2.64v.06Zm16.02,1.25v-8.87h1.96v8.7c0,.37.03.77.06,1.13s.11.79.2,1.25.43,1.05,1.05,1.73c.62.71,1.62,1.05,3.06,1.05l1.13-.11c.65-.11,1.25-.4,1.81-.82.57-.43.94-.91,1.16-1.39s.37-1.02.48-1.64l.09-1.73v-8.19h1.96v15.36h-1.96v-1.7c-1.25,1.39-2.78,2.1-4.51,2.1-.51,0-1.36-.14-2.49-.4-1.16-.26-2.01-.82-2.55-1.7s-.91-1.7-1.11-2.44-.28-1.53-.28-2.38l-.06.06Zm17.97-2.81v9.27h-1.96v-15.36h1.84v1.79c.48-.68,1.05-1.19,1.62-1.53.6-.34,1.25-.51,1.96-.51v2.13c-.94,0-1.79.34-2.58,1.05-.37.43-.6.88-.71,1.39-.11.48-.17,1.11-.17,1.79Zm27.72,9.27h-1.96l.06-2.47c-.68.96-1.5,1.67-2.49,2.15s-2.1.71-3.29.71c-.96,0-1.84-.14-2.58-.4s-1.3-.51-1.73-.77c-.4-.26-.88-.62-1.47-1.13s-1.11-1.28-1.56-2.3-.71-2.15-.71-3.4c0-1.16.23-2.27.71-3.34.48-1.05,1.11-1.93,1.87-2.64s1.62-1.25,2.55-1.59c.94-.37,1.93-.54,2.98-.54.77,0,1.47.11,2.15.31s1.33.51,1.93.94c.62.43,1.16.94,1.64,1.56v-2.47h1.9v15.36Zm-1.9-7.74c0-1.05-.28-2.04-.82-3s-1.28-1.73-2.15-2.27-1.84-.82-2.86-.82h-.54c-.79.09-1.5.31-2.18.68-.62.31-1.19.79-1.7,1.39-.51.62-.88,1.28-1.11,1.96-.23.71-.37,1.45-.37,2.24v.51c0,.48.09.94.23,1.39s.43.99.85,1.64,1.08,1.25,1.96,1.76,1.84.77,2.86.77c1.08,0,2.04-.28,2.95-.88s1.62-1.36,2.13-2.35c.51-.96.77-1.98.77-3.03v.03Zm4.05,2.89h2.04c0,.77.14,1.42.45,1.96.28.54.71.94,1.22,1.19.48.2.88.28,1.22.28.48,0,.94-.11,1.36-.37.43-.23.77-.57.99-.94.23-.4.34-.79.34-1.25,0-.6-.2-1.16-.6-1.67s-.91-.91-1.59-1.13l-1.96-.74c-.62-.23-1.16-.54-1.59-.91s-.74-.85-.94-1.42-.31-1.08-.31-1.53c0-.31.03-.57.09-.82.06-.23.17-.6.37-1.02.2-.45.62-.99,1.28-1.62s1.59-.94,2.83-.94c.62,0,1.3.14,2.01.45.77.28,1.33.77,1.67,1.42s.57,1.45.65,2.38h-2.15c-.14-1.19-.65-1.93-1.47-2.21l-.82-.09c-.62,0-1.16.2-1.64.6-.45.4-.68.96-.68,1.73,0,.34.06.65.2.96.11.31.37.57.71.82s.77.48,1.28.65l1.39.45c.31.09.54.17.62.2s.37.17.88.43c.48.26.94.74,1.36,1.42.4.71.62,1.47.62,2.3,0,.77-.2,1.5-.57,2.24s-.96,1.3-1.73,1.73-1.64.65-2.58.65-1.73-.17-2.35-.54c-.65-.34-1.11-.71-1.36-1.11-.26-.37-.45-.68-.57-.91s-.23-.54-.34-.91-.17-.71-.23-.96c-.03-.28-.06-.57-.06-.82l-.06.03Zm11.11,0h2.04c0,.77.14,1.42.45,1.96.28.54.71.94,1.22,1.19.48.2.88.28,1.22.28.48,0,.94-.11,1.36-.37.43-.23.77-.57.99-.94.23-.4.34-.79.34-1.25,0-.6-.2-1.16-.6-1.67s-.91-.91-1.59-1.13l-1.96-.74c-.62-.23-1.16-.54-1.59-.91s-.74-.85-.94-1.42-.31-1.08-.31-1.53c0-.31.03-.57.09-.82.06-.23.17-.6.37-1.02.2-.45.62-.99,1.28-1.62s1.59-.94,2.83-.94c.62,0,1.3.14,2.01.45.77.28,1.33.77,1.67,1.42s.57,1.45.65,2.38h-2.15c-.14-1.19-.65-1.93-1.47-2.21l-.82-.09c-.62,0-1.16.2-1.64.6-.45.4-.68.96-.68,1.73,0,.34.06.65.2.96.11.31.37.57.71.82s.77.48,1.28.65l1.39.45c.31.09.54.17.62.2s.37.17.88.43c.48.26.94.74,1.36,1.42.4.71.62,1.47.62,2.3,0,.77-.2,1.5-.57,2.24s-.96,1.3-1.73,1.73-1.64.65-2.58.65-1.73-.17-2.35-.54c-.65-.34-1.11-.71-1.36-1.11-.26-.37-.45-.68-.57-.91s-.23-.54-.34-.91-.17-.71-.23-.96c-.03-.28-.06-.57-.06-.82l-.06.03Zm13.38-3.86h11.62c-.4-1.64-1.08-2.89-2.01-3.8-.94-.91-2.24-1.36-3.86-1.36-1.13,0-2.07.23-2.86.65s-1.42,1.05-1.9,1.81c-.45.77-.79,1.67-.99,2.66v.03Zm13.78,1.7h-13.83c.11.71.17,1.11.2,1.16,0,.06.09.34.23.79.14.48.43.96.85,1.47s.94.94,1.5,1.28c.57.37,1.11.6,1.62.68s.99.14,1.45.14c1.02,0,1.98-.23,2.92-.71.96-.57,1.73-1.45,2.35-2.66h2.24c-.48,1.08-1.05,2.01-1.76,2.81-.68.79-1.5,1.39-2.47,1.81s-2.01.65-3.15.65c-1.47,0-2.83-.37-4.05-1.08-1.25-.74-2.21-1.73-2.92-2.98s-1.08-2.61-1.08-4.05c0-1.53.37-2.92,1.08-4.17.74-1.22,1.7-2.18,2.92-2.86s2.58-1.02,4.08-1.02h.62c.17,0,.65.06,1.39.2.77.11,1.62.54,2.55,1.22s1.67,1.53,2.21,2.58c.34.6.6,1.28.79,2.07.17.79.28,1.67.28,2.69l-.03-.03Zm5.58-6.38v13.41h-2.01v-13.41h-2.92v-1.96h2.92v-4.99h2.01v4.99h2.89v1.96h-2.89Z"/><path class="cls-2" d="m83.14,102.9c6.58,3.32,12.5,7.26,17.23,12.02,35.29,32,31.12,102.73,31.12,102.73h-59.92v-71.57H0v-59.92s47.08-2.66,83.14,16.78v-.03Z"/><path class="cls-2" d="m73.39,12.73h59.92v71.57h71.57v59.92s-47.08,2.66-83.14-16.78c-6.58-3.32-12.5-7.26-17.23-12.02-35.29-32-31.12-102.73-31.12-102.73v.03Z"/><path class="cls-1" d="m96.77,90.17c6.58,3.32,12.5,7.26,17.23,12.02,35.29,32,31.12,102.73,31.12,102.73h-59.92v-71.57H13.63v-59.92s47.08-2.66,83.14,16.78v-.03Z"/><path class="cls-1" d="m87.05.03h59.92v71.57h71.57v59.92s-47.08,2.66-83.14-16.78c-6.58-3.32-12.5-7.26-17.23-12.02C82.89,70.72,87.05,0,87.05,0v.03Z"/><path class="cls-2" d="m159.14,302.37v19.22h-2.07v-21.74l3.23-.03,7.48,18.82,7.48-18.79h3.15v21.74h-2.07v-19.22l-7.68,19.22h-1.9l-7.6-19.22h-.03Zm34.36-.37h-9.13v7.57h9.13v2.18h-9.13v7.77h9.13v2.07h-11.31v-21.74h11.31v2.15Zm9.72,19.59h-5.7v-21.74h6.52c.94,0,1.81.09,2.61.23s1.5.37,2.13.65,1.11.54,1.47.79.82.6,1.36,1.05,1.02,1.02,1.45,1.73c.62.88,1.11,1.9,1.47,3.09.34,1.25.48,2.41.48,3.49,0,.85-.11,1.79-.31,2.78-.23.99-.65,2.01-1.3,3.06s-1.45,1.96-2.41,2.72c-.94.77-1.98,1.3-3.09,1.64-1.13.34-2.69.51-4.68.51Zm.99-19.64h-4.59v17.63h5.1c1.56,0,2.92-.34,4.08-1.05,1.16-.68,2.01-1.5,2.52-2.47.51-.94.88-1.76,1.08-2.41s.28-1.36.28-2.1v-.82c0-1.7-.34-3.23-.99-4.59-.68-1.36-1.47-2.3-2.41-2.83s-1.79-.91-2.58-1.08c-.77-.17-1.62-.28-2.52-.28h.03Zm13.69-2.07h2.18v21.74h-2.18v-21.74Zm8.14,12.61v9.1h-2.13v-21.74h4.99c1.13,0,2.18.09,3.17.26.85.17,1.62.57,2.3,1.19.68.54,1.25,1.25,1.64,2.13s.62,1.79.62,2.69v.34c0,1.11-.4,2.21-1.22,3.26-.82,1.05-1.76,1.79-2.83,2.15-1.08.4-2.38.57-3.94.57h-2.58l-.03.06Zm0-10.52v8.36h3.09l1.64-.09c.28-.03.51-.09.68-.14s.37-.14.6-.26.45-.26.65-.4.43-.34.65-.62.43-.62.57-1.05c.14-.4.23-.74.28-.96.03-.23.06-.51.06-.82,0-.85-.2-1.59-.6-2.24s-.96-1.11-1.67-1.42c-.79-.26-2.07-.4-3.86-.4h-2.1v.03Zm15.7,17.55h7.65v2.07h-9.81v-21.74h2.18v19.64l-.03.03Zm21.83-19.64h2.18v13.78c0,2.64-.51,4.68-1.56,6.15s-2.83,2.21-5.39,2.21c-1.19,0-2.27-.23-3.26-.65s-1.73-.99-2.21-1.7-.82-1.3-.96-1.79-.26-.88-.31-1.13c-.06-.28-.09-.6-.14-.96l-.09-2.13v-13.78h2.13v13.69c0,.99.06,1.76.14,2.27.09.62.28,1.16.57,1.67s.65.94,1.08,1.28.85.57,1.25.71.74.23.99.26.54.06.85.06c.82,0,1.59-.2,2.3-.6s1.25-.94,1.59-1.62c.34-.57.57-1.08.65-1.53s.14-.88.14-1.28c.03-.4.03-.79.03-1.25v-13.63l.03-.03Zm4.65,15.53h2.1c.11.94.31,1.73.6,2.41s.71,1.13,1.22,1.42.91.45,1.19.51.6.09.99.09c.62,0,1.22-.11,1.79-.37s1.05-.62,1.45-1.11c.6-.82.88-1.81.88-2.95,0-.48-.06-.96-.17-1.45-.23-.68-.62-1.22-1.22-1.67-.57-.43-1.25-.77-2.04-1.02l-2.35-.77c-2.32-.91-3.57-2.41-3.77-4.48v-.68c0-.77.14-1.53.43-2.3.28-.79.65-1.39,1.08-1.84.43-.43.88-.79,1.33-1.05.26-.11.48-.23.68-.28.17-.09.48-.17.88-.26.4-.11.85-.14,1.33-.14.77,0,1.53.14,2.35.43,1.08.48,1.84,1.16,2.3,2.1s.74,2.01.85,3.29h-2.01c-.23-2.04-.79-3.17-1.64-3.37-.85-.23-1.45-.31-1.81-.31-.48,0-1.02.11-1.59.34-.51.26-.99.62-1.42,1.19-.45.54-.68,1.28-.68,2.18s.28,1.64.79,2.13c.54.51,1.22.91,2.04,1.22l2.64.91c.96.37,1.76.77,2.35,1.22s1.05,1.08,1.36,1.87.48,1.59.48,2.41c0,.91-.14,1.7-.37,2.41-.26.71-.51,1.25-.74,1.64s-.57.85-1.05,1.39c-.45.54-1.08.94-1.9,1.19-.79.26-1.59.4-2.3.4-1.13,0-2.15-.28-3.06-.85s-1.62-1.36-2.18-2.41c-.54-1.02-.82-2.15-.82-3.37l.03-.06Zm43.43-9.89h-2.58c-1.05-1.33-2.13-2.32-3.2-2.98-1.08-.65-2.38-.96-3.88-.96h-1.22c-1.45.17-2.75.65-3.94,1.47-1.19.82-2.13,1.93-2.83,3.29-.71,1.39-1.08,2.81-1.08,4.28,0,1.02.17,2.01.48,2.98.28.96.74,1.84,1.33,2.69.6.82,1.28,1.5,1.98,2.04.74.54,1.56.96,2.52,1.28.82.26,1.7.37,2.58.37,1.42,0,2.66-.28,3.77-.82s2.24-1.5,3.4-2.92h2.49c-.57,1.19-1.36,2.24-2.41,3.15-1.02.91-2.15,1.59-3.37,2.01s-2.47.65-3.77.65c-1.39,0-2.72-.23-3.97-.68-1.28-.45-2.44-1.13-3.49-2.07-1.08-.94-1.87-1.9-2.38-2.89s-.88-1.84-1.08-2.52-.31-1.45-.31-2.24v-.94c0-1.67.31-3.2.91-4.59.62-1.39,1.45-2.58,2.52-3.6,1.08-.99,2.3-1.76,3.66-2.27s2.72-.79,4.11-.79c.94,0,1.76.09,2.49.28.74.17,1.3.37,1.67.54s.91.45,1.53.82c.65.37,1.33.94,2.1,1.7s1.42,1.67,1.93,2.72h.03Zm1.98,5.13c0-.77.09-1.53.26-2.27s.45-1.62.91-2.66c.43-1.05,1.19-2.07,2.24-3.12,1.05-1.02,2.3-1.81,3.66-2.38,1.39-.54,2.78-.82,4.22-.82.68,0,1.53.09,2.52.28.99.2,1.93.57,2.81,1.11s1.53,1.02,1.96,1.39.82.82,1.22,1.36.74,1.08,1.02,1.64c.31.57.62,1.3.94,2.24s.48,2.07.48,3.4v.91c-.17,1.96-.79,3.71-1.81,5.27-1.02,1.56-2.35,2.78-4,3.69-1.64.88-3.43,1.33-5.36,1.33-2.07,0-3.97-.51-5.64-1.56-1.7-1.05-3-2.44-3.97-4.17s-1.45-3.63-1.45-5.7v.06Zm2.3.03c0,1.64.4,3.2,1.16,4.65.79,1.45,1.67,2.49,2.72,3.12s1.81,1.02,2.3,1.16.91.26,1.28.34.79.11,1.33.11c1.08,0,2.15-.23,3.2-.65,1.05-.45,2.01-1.05,2.86-1.84s1.5-1.67,1.98-2.69c.48-.99.77-2.07.91-3.17v-.77c0-.94-.14-1.84-.43-2.81-.28-.94-.68-1.84-1.25-2.69s-1.22-1.56-2.01-2.15c-.79-.6-1.64-1.05-2.52-1.33-.91-.28-1.81-.43-2.69-.43-1.13,0-2.21.23-3.29.68-1.08.45-2.01,1.11-2.86,1.98-.82.88-1.47,1.84-1.96,2.89-.26.62-.43,1.19-.54,1.76s-.17,1.16-.17,1.81l-.03.03Zm25.09-8.25v19.22h-2.07v-21.74l3.23-.03,7.48,18.82,7.48-18.79h3.15v21.74h-2.07v-19.22l-7.68,19.22h-1.9l-7.6-19.22h-.03Zm24.97,10.12v9.1h-2.13v-21.74h4.99c1.13,0,2.18.09,3.17.26.85.17,1.62.57,2.3,1.19.68.54,1.25,1.25,1.64,2.13s.62,1.79.62,2.69v.34c0,1.11-.4,2.21-1.22,3.26s-1.76,1.79-2.83,2.15c-1.08.4-2.38.57-3.94.57h-2.58l-.03.06Zm0-10.52v8.36h3.09l1.64-.09c.28-.03.51-.09.68-.14s.37-.14.6-.26.45-.26.65-.4.43-.34.65-.62.43-.62.57-1.05c.14-.4.23-.74.28-.96.03-.23.06-.51.06-.82,0-.85-.2-1.59-.6-2.24s-.96-1.11-1.67-1.42c-.79-.26-2.07-.4-3.86-.4h-2.1v.03Zm20.41-.09l-4.05,10.94h8.19l-4.14-10.94Zm4.82,12.9h-9.58l-2.64,6.8h-2.18l8.39-21.74h2.58l8.33,21.74h-2.27l-2.64-6.8Zm6.52-14.91h2.58l11.88,19.11-.26-19.11h2.18v21.74h-2.58l-11.99-19.16.26,19.16h-2.07v-21.74Zm33.02,11.82h-10.4v9.89h-2.18v-21.74h2.18v9.72h10.4v-9.72h2.07v21.74h-2.07v-9.89Zm6.04-11.82h2.18v21.74h-2.18v-21.74Zm13.07,2.01l-4.05,10.94h8.19l-4.14-10.94Zm4.82,12.9h-9.58l-2.64,6.8h-2.18l8.39-21.74h2.58l8.33,21.74h-2.27l-2.64-6.8Zm20.44,6.8h-5.7v-21.74h6.52c.94,0,1.81.09,2.61.23s1.5.37,2.13.65,1.11.54,1.47.79.82.6,1.36,1.05,1.02,1.02,1.45,1.73c.62.88,1.11,1.9,1.47,3.09.34,1.25.48,2.41.48,3.49,0,.85-.11,1.79-.31,2.78-.23.99-.65,2.01-1.3,3.06s-1.45,1.96-2.41,2.72c-.94.77-1.98,1.3-3.09,1.64-1.13.34-2.69.51-4.68.51Zm.99-19.64h-4.59v17.63h5.1c1.56,0,2.92-.34,4.08-1.05,1.16-.68,2.01-1.5,2.52-2.47.51-.94.88-1.76,1.08-2.41s.28-1.36.28-2.1v-.82c0-1.7-.34-3.23-.99-4.59-.68-1.36-1.47-2.3-2.41-2.83s-1.79-.91-2.58-1.08c-.77-.17-1.62-.28-2.52-.28h.03Zm25.06.06h-9.13v7.57h9.13v2.18h-9.13v7.77h9.13v2.07h-11.31v-21.74h11.31v2.15Zm11,13.38h2.1c.11.94.31,1.73.6,2.41s.71,1.13,1.22,1.42.91.45,1.19.51.6.09.99.09c.62,0,1.22-.11,1.79-.37s1.05-.62,1.45-1.11c.6-.82.88-1.81.88-2.95,0-.48-.06-.96-.17-1.45-.23-.68-.62-1.22-1.22-1.67-.57-.43-1.25-.77-2.04-1.02l-2.35-.77c-2.32-.91-3.57-2.41-3.77-4.48v-.68c0-.77.14-1.53.43-2.3.28-.79.65-1.39,1.08-1.84.43-.43.88-.79,1.33-1.05.26-.11.48-.23.68-.28.17-.09.48-.17.88-.26.4-.11.85-.14,1.33-.14.77,0,1.53.14,2.35.43,1.08.48,1.84,1.16,2.3,2.1s.74,2.01.85,3.29h-2.01c-.23-2.04-.79-3.17-1.64-3.37-.85-.23-1.45-.31-1.81-.31-.48,0-1.02.11-1.59.34-.51.26-.99.62-1.42,1.19-.45.54-.68,1.28-.68,2.18s.28,1.64.79,2.13c.54.51,1.22.91,2.04,1.22l2.64.91c.96.37,1.76.77,2.35,1.22s1.05,1.08,1.36,1.87.48,1.59.48,2.41c0,.91-.14,1.7-.37,2.41-.26.71-.51,1.25-.74,1.64s-.57.85-1.05,1.39c-.45.54-1.08.94-1.9,1.19-.79.26-1.59.4-2.3.4-1.13,0-2.15-.28-3.06-.85s-1.62-1.36-2.18-2.41c-.54-1.02-.82-2.15-.82-3.37l.03-.06Zm26.7-13.38h-9.13v7.57h9.13v2.18h-9.13v7.77h9.13v2.07h-11.31v-21.74h11.31v2.15Zm22.59,11.11h-11v-1.93h13.52c-.26,2.61-.88,4.54-1.81,5.81s-1.76,2.15-2.47,2.66c-.68.51-1.3.91-1.84,1.16s-1.22.54-2.04.79-1.81.4-2.95.4c-1.42,0-2.78-.26-4.08-.77s-2.32-1.13-3.06-1.84-1.3-1.36-1.7-1.9c-.4-.57-.85-1.33-1.3-2.27-.48-.96-.77-2.15-.88-3.57v-.94c0-2.27.54-4.22,1.59-5.92,1.05-1.67,2.47-2.98,4.22-3.94,1.76-.94,3.6-1.42,5.47-1.42,1.98,0,3.83.48,5.56,1.47s3.12,2.47,4.2,4.45h-2.64c-1.08-1.3-2.18-2.3-3.29-2.95-1.13-.65-2.35-.96-3.74-.96-.57,0-1.42.11-2.58.34s-2.24.79-3.26,1.7-1.76,1.84-2.18,2.78c-.43.96-.71,1.79-.88,2.44-.14.65-.23,1.33-.23,2.01,0,1.19.23,2.35.68,3.49s1.08,2.13,1.84,2.95c.79.82,1.59,1.45,2.41,1.81.82.4,1.53.65,2.07.79.57.14,1.13.2,1.76.2,2.13,0,3.83-.54,5.1-1.59,1.25-1.08,2.07-1.96,2.47-2.64s.77-1.59,1.11-2.64h-.06Zm16.89-13.27h2.18v13.78c0,2.64-.51,4.68-1.56,6.15s-2.83,2.21-5.39,2.21c-1.19,0-2.27-.23-3.26-.65s-1.73-.99-2.21-1.7-.82-1.3-.96-1.79-.26-.88-.31-1.13c-.06-.28-.09-.6-.14-.96l-.09-2.13v-13.78h2.13v13.69c0,.99.06,1.76.14,2.27.09.62.28,1.16.57,1.67s.65.94,1.08,1.28.85.57,1.25.71.74.23.99.26.54.06.85.06c.82,0,1.59-.2,2.3-.6s1.25-.94,1.59-1.62c.34-.57.57-1.08.65-1.53s.14-.88.14-1.28c.03-.4.03-.79.03-1.25v-13.63l.03-.03Zm11.57,2.13h-3.94v19.59h-2.07v-21.74h5.78c1.33,0,2.41.11,3.23.34.94.2,1.76.62,2.47,1.25.71.62,1.22,1.25,1.5,1.87s.51,1.16.65,1.64.2.91.2,1.33v.48c0,.79-.14,1.59-.43,2.38s-.77,1.59-1.47,2.38-1.84,1.33-3.37,1.59l5.3,8.45-2.52.03-6.43-10.52h1.3l.37.03c1.36,0,2.55-.34,3.54-1.02s1.47-1.84,1.47-3.43v-.71c-.09-.77-.34-1.47-.82-2.1-.45-.62-1.02-1.11-1.7-1.42-.74-.28-1.76-.43-3.03-.43h-.03Zm10.15,8.59c0-.77.09-1.53.26-2.27s.45-1.62.91-2.66c.43-1.05,1.19-2.07,2.24-3.12,1.05-1.02,2.3-1.81,3.66-2.38,1.39-.54,2.78-.82,4.22-.82.68,0,1.53.09,2.52.28s1.93.57,2.81,1.11,1.53,1.02,1.96,1.39.82.82,1.22,1.36.74,1.08,1.02,1.64c.31.57.62,1.3.94,2.24s.48,2.07.48,3.4v.91c-.17,1.96-.79,3.71-1.81,5.27-1.02,1.56-2.35,2.78-4,3.69-1.64.88-3.43,1.33-5.36,1.33-2.07,0-3.97-.51-5.64-1.56-1.7-1.05-3-2.44-3.97-4.17s-1.45-3.63-1.45-5.7v.06Zm2.3.03c0,1.64.4,3.2,1.16,4.65.79,1.45,1.67,2.49,2.72,3.12s1.81,1.02,2.3,1.16.91.26,1.28.34.79.11,1.33.11c1.08,0,2.15-.23,3.2-.65,1.05-.45,2.01-1.05,2.86-1.84s1.5-1.67,1.98-2.69c.48-.99.77-2.07.91-3.17v-.77c0-.94-.14-1.84-.43-2.81-.28-.94-.68-1.84-1.25-2.69s-1.22-1.56-2.01-2.15c-.79-.6-1.64-1.05-2.52-1.33-.91-.28-1.81-.43-2.69-.43-1.13,0-2.21.23-3.29.68s-2.01,1.11-2.86,1.98c-.82.88-1.47,1.84-1.96,2.89-.26.62-.43,1.19-.54,1.76s-.17,1.16-.17,1.81l-.03.03Zm21.69,4.76h2.1c.11.94.31,1.73.6,2.41.28.68.71,1.13,1.22,1.42s.91.45,1.19.51.6.09.99.09c.62,0,1.22-.11,1.79-.37s1.05-.62,1.45-1.11c.6-.82.88-1.81.88-2.95,0-.48-.06-.96-.17-1.45-.23-.68-.62-1.22-1.22-1.67-.57-.43-1.25-.77-2.04-1.02l-2.35-.77c-2.32-.91-3.57-2.41-3.77-4.48v-.68c0-.77.14-1.53.43-2.3.28-.79.65-1.39,1.08-1.84.43-.43.88-.79,1.33-1.05.26-.11.48-.23.68-.28.17-.09.48-.17.88-.26.4-.11.85-.14,1.33-.14.77,0,1.53.14,2.35.43,1.08.48,1.84,1.16,2.3,2.1s.74,2.01.85,3.29h-2.01c-.23-2.04-.79-3.17-1.64-3.37-.85-.23-1.45-.31-1.81-.31-.48,0-1.02.11-1.59.34-.51.26-.99.62-1.42,1.19-.45.54-.68,1.28-.68,2.18s.28,1.64.79,2.13c.54.51,1.22.91,2.04,1.22l2.64.91c.96.37,1.76.77,2.35,1.22s1.05,1.08,1.36,1.87.48,1.59.48,2.41c0,.91-.14,1.7-.37,2.41-.26.71-.51,1.25-.74,1.64s-.57.85-1.05,1.39c-.45.54-1.08.94-1.9,1.19-.79.26-1.59.4-2.3.4-1.13,0-2.15-.28-3.06-.85s-1.62-1.36-2.18-2.41c-.54-1.02-.82-2.15-.82-3.37l.03-.06Zm22.37,0h2.1c.11.94.31,1.73.6,2.41s.71,1.13,1.22,1.42.91.45,1.19.51.6.09.99.09c.62,0,1.22-.11,1.79-.37s1.05-.62,1.45-1.11c.6-.82.88-1.81.88-2.95,0-.48-.06-.96-.17-1.45-.23-.68-.62-1.22-1.22-1.67-.57-.43-1.25-.77-2.04-1.02l-2.35-.77c-2.32-.91-3.57-2.41-3.77-4.48v-.68c0-.77.14-1.53.43-2.3.28-.79.65-1.39,1.08-1.84.43-.43.88-.79,1.33-1.05.26-.11.48-.23.68-.28.17-.09.48-.17.88-.26.4-.11.85-.14,1.33-.14.77,0,1.53.14,2.35.43,1.08.48,1.84,1.16,2.3,2.1.45.94.74,2.01.85,3.29h-2.01c-.23-2.04-.79-3.17-1.64-3.37-.85-.23-1.45-.31-1.81-.31-.48,0-1.02.11-1.59.34-.51.26-.99.62-1.42,1.19-.45.54-.68,1.28-.68,2.18s.28,1.64.79,2.13c.54.51,1.22.91,2.04,1.22l2.64.91c.96.37,1.76.77,2.35,1.22s1.05,1.08,1.36,1.87.48,1.59.48,2.41c0,.91-.14,1.7-.37,2.41-.26.71-.51,1.25-.74,1.64s-.57.85-1.05,1.39c-.45.54-1.08.94-1.9,1.19-.79.26-1.59.4-2.3.4-1.13,0-2.15-.28-3.06-.85s-1.62-1.36-2.18-2.41c-.54-1.02-.82-2.15-.82-3.37l.03-.06Zm22.28-13.49l-4.05,10.94h8.19l-4.14-10.94Zm4.82,12.9h-9.58l-2.64,6.8h-2.18l8.39-21.74h2.58l8.33,21.74h-2.27l-2.64-6.8Z"/></g></g></svg>